<svg width="48" height="48" viewBox="0 0 48 48" fill="none" xmlns="http://www.w3.org/2000/svg">
<path d="M17.25 25C17.4489 25 17.6397 25.079 17.7803 25.2197C17.921 25.3603 18 25.5511 18 25.75" stroke="black" stroke-width="3" stroke-linecap="round" stroke-linejoin="round"/>
<path d="M16.5 25.75C16.5 25.5511 16.579 25.3603 16.7197 25.2197C16.8603 25.079 17.0511 25 17.25 25" stroke="black" stroke-width="3" stroke-linecap="round" stroke-linejoin="round"/>
<path d="M17.25 26.5C17.0511 26.5 16.8603 26.421 16.7197 26.2803C16.579 26.1397 16.5 25.9489 16.5 25.75" stroke="black" stroke-width="3" stroke-linecap="round" stroke-linejoin="round"/>
<path d="M18 25.75C18 25.9489 17.921 26.1397 17.7803 26.2803C17.6397 26.421 17.4489 26.5 17.25 26.5" stroke="black" stroke-width="3" stroke-linecap="round" stroke-linejoin="round"/>
<path d="M30.75 25C30.9489 25 31.1397 25.079 31.2803 25.2197C31.421 25.3603 31.5 25.5511 31.5 25.75" stroke="black" stroke-width="3" stroke-linecap="round" stroke-linejoin="round"/>
<path d="M30 25.75C30 25.5511 30.079 25.3603 30.2197 25.2197C30.3603 25.079 30.5511 25 30.75 25" stroke="black" stroke-width="3" stroke-linecap="round" stroke-linejoin="round"/>
<path d="M30.75 26.5C30.5511 26.5 30.3603 26.421 30.2197 26.2803C30.079 26.1397 30 25.9489 30 25.75" stroke="black" stroke-width="3" stroke-linecap="round" stroke-linejoin="round"/>
<path d="M31.5 25.75C31.5 25.9489 31.421 26.1397 31.2803 26.2803C31.1397 26.421 30.9489 26.5 30.75 26.5" stroke="black" stroke-width="3" stroke-linecap="round" stroke-linejoin="round"/>
<path d="M41.25 22.7501H41.222C40.0995 19.057 37.8195 15.8226 34.7185 13.5241C31.6176 11.2257 27.8599 9.98486 24 9.98486C20.1401 9.98486 16.3824 11.2257 13.2815 13.5241C10.1805 15.8226 7.90054 19.057 6.778 22.7501H6.75C5.35761 22.7501 4.02226 23.3032 3.03769 24.2878C2.05312 25.2724 1.5 26.6077 1.5 28.0001C1.5 29.3925 2.05312 30.7278 3.03769 31.7124C4.02226 32.697 5.35761 33.2501 6.75 33.2501H6.778C7.90054 36.9432 10.1805 40.1776 13.2815 42.4761C16.3824 44.7746 20.1401 46.0153 24 46.0153C27.8599 46.0153 31.6176 44.7746 34.7185 42.4761C37.8195 40.1776 40.0995 36.9432 41.222 33.2501H41.25C42.6424 33.2501 43.9777 32.697 44.9623 31.7124C45.9469 30.7278 46.5 29.3925 46.5 28.0001C46.5 26.6077 45.9469 25.2724 44.9623 24.2878C43.9777 23.3032 42.6424 22.7501 41.25 22.7501Z" stroke="black" stroke-width="3" stroke-linecap="round" stroke-linejoin="round"/>
<path d="M30.708 35.5C29.8638 36.4438 28.83 37.1988 27.6741 37.7157C26.5182 38.2326 25.2662 38.4998 24 38.4998C22.7338 38.4998 21.4818 38.2326 20.3259 37.7157C19.17 37.1988 18.1362 36.4438 17.292 35.5" stroke="black" stroke-width="3" stroke-linecap="round" stroke-linejoin="round"/>
<path d="M28.9762 2.5C30.1923 3.30737 31.1939 4.39845 31.8944 5.67914C32.5949 6.95983 32.9734 8.39169 32.9972 9.85126C33.021 11.3108 32.6895 12.7543 32.0311 14.0572C31.3728 15.36 30.4074 16.4832 29.2182 17.3298C28.029 18.1765 26.6518 18.7211 25.2052 18.9169C23.7586 19.1126 22.2862 18.9535 20.9148 18.4534C19.5433 17.9532 18.3142 17.127 17.3333 16.0459C16.3523 14.9648 15.6491 13.6614 15.2842 12.248" stroke="black" stroke-width="3" stroke-linecap="round" stroke-linejoin="round"/>
</svg>
