<svg width="69" height="24" viewBox="0 0 69 24" fill="none" xmlns="http://www.w3.org/2000/svg">
<path d="M32.096 13.216V18H30.552V6.536H33.792C34.5173 6.536 35.144 6.61067 35.672 6.76C36.2 6.904 36.6347 7.11467 36.976 7.392C37.3227 7.66933 37.5787 8.00533 37.744 8.4C37.9093 8.78933 37.992 9.22667 37.992 9.712C37.992 10.1173 37.928 10.496 37.8 10.848C37.672 11.2 37.4853 11.5173 37.24 11.8C37 12.0773 36.704 12.3147 36.352 12.512C36.0053 12.7093 35.6107 12.8587 35.168 12.96C35.36 13.072 35.5307 13.2347 35.68 13.448L39.024 18H37.648C37.3653 18 37.1573 17.8907 37.024 17.672L34.048 13.576C33.9573 13.448 33.8587 13.3573 33.752 13.304C33.6453 13.2453 33.4853 13.216 33.272 13.216H32.096ZM32.096 12.088H33.72C34.1733 12.088 34.5707 12.0347 34.912 11.928C35.2587 11.816 35.5467 11.6613 35.776 11.464C36.0107 11.2613 36.1867 11.0213 36.304 10.744C36.4213 10.4667 36.48 10.16 36.48 9.824C36.48 9.14133 36.2533 8.62667 35.8 8.28C35.352 7.93333 34.6827 7.76 33.792 7.76H32.096V12.088ZM43.6729 9.768C44.1582 9.768 44.6062 9.85067 45.0169 10.016C45.4275 10.176 45.7822 10.4107 46.0809 10.72C46.3795 11.024 46.6115 11.4027 46.7769 11.856C46.9475 12.304 47.0329 12.816 47.0329 13.392C47.0329 13.616 47.0089 13.7653 46.9609 13.84C46.9129 13.9147 46.8222 13.952 46.6889 13.952H41.2969C41.3075 14.464 41.3769 14.9093 41.5049 15.288C41.6329 15.6667 41.8089 15.984 42.0329 16.24C42.2569 16.4907 42.5235 16.68 42.8329 16.808C43.1422 16.9307 43.4889 16.992 43.8729 16.992C44.2302 16.992 44.5369 16.952 44.7929 16.872C45.0542 16.7867 45.2782 16.696 45.4649 16.6C45.6515 16.504 45.8062 16.416 45.9289 16.336C46.0569 16.2507 46.1662 16.208 46.2569 16.208C46.3742 16.208 46.4649 16.2533 46.5289 16.344L46.9289 16.864C46.7529 17.0773 46.5422 17.264 46.2969 17.424C46.0515 17.5787 45.7875 17.7067 45.5049 17.808C45.2275 17.9093 44.9395 17.984 44.6409 18.032C44.3422 18.0853 44.0462 18.112 43.7529 18.112C43.1929 18.112 42.6755 18.0187 42.2009 17.832C41.7315 17.64 41.3235 17.3627 40.9769 17C40.6355 16.632 40.3689 16.1787 40.1769 15.64C39.9849 15.1013 39.8889 14.4827 39.8889 13.784C39.8889 13.2187 39.9742 12.6907 40.1449 12.2C40.3209 11.7093 40.5715 11.2853 40.8969 10.928C41.2222 10.5653 41.6195 10.2827 42.0889 10.08C42.5582 9.872 43.0862 9.768 43.6729 9.768ZM43.7049 10.816C43.0169 10.816 42.4755 11.016 42.0809 11.416C41.6862 11.8107 41.4409 12.36 41.3449 13.064H45.7529C45.7529 12.7333 45.7075 12.432 45.6169 12.16C45.5262 11.8827 45.3929 11.6453 45.2169 11.448C45.0409 11.2453 44.8249 11.0907 44.5689 10.984C44.3182 10.872 44.0302 10.816 43.7049 10.816ZM48.8555 20.744V9.896H49.7035C49.9062 9.896 50.0342 9.99467 50.0875 10.192L50.2075 11.152C50.5542 10.7307 50.9488 10.392 51.3915 10.136C51.8395 9.88 52.3542 9.752 52.9355 9.752C53.3995 9.752 53.8208 9.84267 54.1995 10.024C54.5782 10.2 54.9008 10.464 55.1675 10.816C55.4342 11.1627 55.6395 11.5947 55.7835 12.112C55.9275 12.6293 55.9995 13.224 55.9995 13.896C55.9995 14.4933 55.9195 15.0507 55.7595 15.568C55.5995 16.08 55.3702 16.5253 55.0715 16.904C54.7728 17.2773 54.4048 17.5733 53.9675 17.792C53.5355 18.0053 53.0475 18.112 52.5035 18.112C52.0022 18.112 51.5728 18.0293 51.2155 17.864C50.8635 17.6987 50.5515 17.464 50.2795 17.16V20.744H48.8555ZM52.4635 10.904C51.9995 10.904 51.5915 11.0107 51.2395 11.224C50.8928 11.4373 50.5728 11.7387 50.2795 12.128V16.048C50.5408 16.4 50.8262 16.648 51.1355 16.792C51.4502 16.936 51.7995 17.008 52.1835 17.008C52.9355 17.008 53.5142 16.7387 53.9195 16.2C54.3248 15.6613 54.5275 14.8933 54.5275 13.896C54.5275 13.368 54.4795 12.9147 54.3835 12.536C54.2928 12.1573 54.1595 11.848 53.9835 11.608C53.8075 11.3627 53.5915 11.184 53.3355 11.072C53.0795 10.96 52.7888 10.904 52.4635 10.904ZM59.2676 6.216V18H57.8436V6.216H59.2676ZM64.1534 20.392C64.1054 20.4987 64.044 20.584 63.9694 20.648C63.9 20.712 63.7907 20.744 63.6414 20.744H62.5854L64.0654 17.528L60.7214 9.896H61.9534C62.076 9.896 62.172 9.928 62.2414 9.992C62.3107 10.0507 62.3614 10.1173 62.3934 10.192L64.5614 15.296C64.6094 15.4133 64.6494 15.5307 64.6814 15.648C64.7187 15.7653 64.7507 15.8853 64.7774 16.008C64.8147 15.8853 64.852 15.7653 64.8894 15.648C64.9267 15.5307 64.9694 15.4107 65.0174 15.288L67.1214 10.192C67.1534 10.1067 67.2067 10.0373 67.2814 9.984C67.3614 9.92533 67.4467 9.896 67.5374 9.896H68.6734L64.1534 20.392Z" fill="#383B37"/>
<path fill-rule="evenodd" clip-rule="evenodd" d="M10 9V5L3 12L10 19V14.9C15 14.9 18.5 16.5 21 20C20 15 17 10 10 9Z" fill="#383B37"/>
</svg>
